<?xml version="1.0" encoding="UTF-8" standalone="no"?>
<!-- Created with Inkscape (http://www.inkscape.org/) -->

<svg
   xmlns:dc="http://purl.org/dc/elements/1.1/"
   xmlns:cc="http://creativecommons.org/ns#"
   xmlns:rdf="http://www.w3.org/1999/02/22-rdf-syntax-ns#"
   xmlns:svg="http://www.w3.org/2000/svg"
   xmlns="http://www.w3.org/2000/svg"
   xmlns:sodipodi="http://sodipodi.sourceforge.net/DTD/sodipodi-0.dtd"
   xmlns:inkscape="http://www.inkscape.org/namespaces/inkscape"
   id="svg2"
   version="1.1"
   inkscape:version="0.48.5 r10040"
   width="92.384537"
   height="42.002441"
   xml:space="preserve"
   sodipodi:docname="ccby.svg"><metadata
     id="metadata8"><rdf:RDF><cc:Work
         rdf:about=""><dc:format>image/svg+xml</dc:format><dc:type
           rdf:resource="http://purl.org/dc/dcmitype/StillImage" /><dc:title></dc:title></cc:Work></rdf:RDF></metadata><defs
     id="defs6" /><sodipodi:namedview
     pagecolor="#ffffff"
     bordercolor="#666666"
     borderopacity="1"
     objecttolerance="10"
     gridtolerance="10"
     guidetolerance="10"
     inkscape:pageopacity="0"
     inkscape:pageshadow="2"
     inkscape:window-width="1366"
     inkscape:window-height="702"
     id="namedview4"
     showgrid="false"
     showguides="true"
     inkscape:guide-bbox="true"
     inkscape:snap-bbox="true"
     inkscape:bbox-paths="true"
     inkscape:bbox-nodes="true"
     inkscape:snap-bbox-edge-midpoints="true"
     inkscape:snap-bbox-midpoints="true"
     inkscape:object-paths="true"
     inkscape:object-nodes="true"
     inkscape:snap-intersection-paths="true"
     inkscape:snap-smooth-nodes="true"
     fit-margin-top="0"
     fit-margin-left="0"
     fit-margin-right="0"
     fit-margin-bottom="0"
     inkscape:zoom="6.7166667"
     inkscape:cx="47.390518"
     inkscape:cy="11.546432"
     inkscape:window-x="0"
     inkscape:window-y="27"
     inkscape:window-maximized="1"
     inkscape:current-layer="g12"><sodipodi:guide
       orientation="1,0"
       position="119.76125,22.544917"
       id="guide3021" /><sodipodi:guide
       orientation="1,0"
       position="74.941375,27.021753"
       id="guide3025" /><sodipodi:guide
       orientation="1,0"
       position="91.369411,13.596421"
       id="guide3027" /><sodipodi:guide
       orientation="0,1"
       position="109.27695,12.509816"
       id="guide3029" /></sodipodi:namedview><g
     id="g10"
     inkscape:groupmode="layer"
     inkscape:label="ink_ext_XXXXXX"
     transform="matrix(1.25,0,0,-1.25,0,43.25)"><g
       id="g12"
       transform="scale(0.1,0.1)"><path
         d="M 21.852034,342.172 714.06649,340.57 c 9.66378,0 18.31081,1.879 18.31081,-25.269 l -0.84118,-298.6408 -727.15721,0 0,299.7308 c 0,13.398 0.9780194,25.781 17.473124,25.781 z"
         style="fill:#aab2ab;fill-opacity:1;fill-rule:nonzero;stroke:none"
         id="path14"
         inkscape:connector-curvature="0" /><path
         d="M 276.172,189.398 C 276.211,129.16 227.422,80.3008 167.148,80.2617 106.91,80.2188 58.0508,129.051 58.0117,189.281 l 0,0.117 C 57.9688,249.629 106.801,298.5 167.031,298.539 227.27,298.578 276.129,249.75 276.172,189.52 l 0,-0.122 z"
         style="fill:#ffffff;fill-opacity:1;fill-rule:nonzero;stroke:none"
         id="path16"
         inkscape:connector-curvature="0" /><path
         d="m 255.781,278.23 c 24.18,-24.179 36.289,-53.789 36.289,-88.832 0,-35.039 -11.91,-64.339 -35.66,-87.886 -25.238,-24.8518 -55.082,-37.2308 -89.461,-37.2308 -33.98,0 -63.32,12.3086 -87.8904,36.9178 -24.6094,24.602 -36.9102,53.981 -36.9102,88.199 0,34.223 12.3008,63.832 36.9102,88.832 23.9534,24.219 53.2814,36.29 87.8904,36.29 35.039,0 64.61,-12.071 88.832,-36.29 z M 95.3086,261.98 C 74.8789,241.309 64.6484,217.129 64.6484,189.359 c 0,-27.738 10.1211,-51.718 30.3516,-71.949 20.27,-20.2381 44.34,-30.3592 72.301,-30.3592 27.969,0 52.269,10.1992 72.929,30.6682 19.61,18.98 29.418,42.851 29.418,71.64 0,28.59 -9.957,52.852 -29.878,72.77 -19.93,19.922 -44.071,29.891 -72.469,29.891 -28.352,0 -52.379,-10.04 -71.9924,-30.04 z m 53.8324,-60.39 c -3.121,6.789 -7.813,10.191 -14.02,10.191 -11.062,0 -16.57,-7.422 -16.57,-22.261 0,-14.848 5.508,-22.27 16.57,-22.27 7.258,0 12.457,3.629 15.578,10.859 l 15.321,-8.129 c -7.309,-12.96 -18.25,-19.41 -32.821,-19.41 -11.25,0 -20.23,3.442 -26.988,10.309 -6.8008,6.922 -10.1602,16.41 -10.1602,28.519 0,11.911 3.4804,21.372 10.4292,28.364 7,6.988 15.668,10.468 26.098,10.468 15.434,0 26.442,-6.058 33.121,-18.171 l -16.558,-8.469 z m 71.91,0 c -3.121,6.789 -7.692,10.191 -13.75,10.191 -11.25,0 -16.871,-7.422 -16.871,-22.261 0,-14.848 5.621,-22.27 16.871,-22.27 7.308,0 12.429,3.629 15.32,10.859 l 15.617,-8.129 c -7.258,-12.96 -18.16,-19.41 -32.726,-19.41 -11.211,0 -20.203,3.442 -26.961,10.309 -6.75,6.922 -10.153,16.41 -10.153,28.519 0,11.911 3.442,21.372 10.313,28.364 6.84,6.988 15.59,10.468 26.168,10.468 15.391,0 26.41,-6.058 33.051,-18.171 l -16.879,-8.469 z"
         style="fill:#000000;fill-opacity:1;fill-rule:nonzero;stroke:none"
         id="path18"
         inkscape:connector-curvature="0" /><path
         d="M 721.10729,346 17.9688,346 C 8.05078,346 0,337.949 0,328.031 L 0,14.0508 C 0,11.8203 1.83984,9.98047 4.05859,9.98047 l 730.9587,0 c 2.219,0 4.059,1.83983 4.059,4.07033 l 0,313.9802 c 0,9.918 -8.051,17.969 -17.969,17.969 z m -703.13849,-8.129 703.13849,0 c 5.43,0 9.848,-4.41 9.848,-9.84 l 0,-217.972 -439.54529,0 C 267.23,66.3086 220.59,36.5898 167.07,36.5898 c -53.55,0 -100.1911,29.6797 -124.3708,73.4692 l -34.57811,0 0,217.972 c 0,5.43 4.41801,9.84 9.84771,9.84 z"
         style="fill:#000000;fill-opacity:1;fill-rule:nonzero;stroke:none"
         id="path20"
         inkscape:connector-curvature="0"
         sodipodi:nodetypes="ssssssssssssccsccss" /><path
         d="m 479.961,84.0117 c 2.539,0 4.84,-0.2031 6.918,-0.6719 2.07,-0.4296 3.859,-1.1679 5.351,-2.1796 1.481,-1.0196 2.649,-2.3516 3.469,-4.0313 0.821,-1.6797 1.211,-3.75 1.211,-6.25 0,-2.6484 -0.582,-4.8789 -1.832,-6.6797 -1.207,-1.75 -3.008,-3.1992 -5.348,-4.3711 3.239,-0.9375 5.7,-2.5781 7.301,-4.9179 1.641,-2.3516 2.418,-5.1993 2.418,-8.5196 0,-2.6601 -0.5,-4.9609 -1.558,-6.9101 -1.012,-1.961 -2.422,-3.5586 -4.18,-4.8086 -1.762,-1.211 -3.789,-2.1524 -6.012,-2.7305 -2.269,-0.5898 -4.578,-0.9023 -6.961,-0.9023 l -25.738,0 0,52.9726 24.961,0 z M 478.48,62.6016 c 2.071,0 3.79,0.4687 5.149,1.4882 1.332,0.9688 1.992,2.5704 1.992,4.8008 0,1.211 -0.23,2.2305 -0.66,3.0508 -0.473,0.7774 -1.051,1.3594 -1.801,1.8281 -0.738,0.4297 -1.601,0.75 -2.57,0.9414 -0.942,0.1602 -1.961,0.2383 -3.012,0.2383 l -10.898,0 0,-12.3476 11.8,0 z m 0.7,-22.5 c 1.129,0 2.23,0.1172 3.242,0.3476 1.058,0.1992 1.988,0.5899 2.777,1.1016 0.781,0.539 1.403,1.25 1.871,2.1094 0.469,0.8906 0.7,2.0312 0.7,3.4296 0,2.6993 -0.739,4.6485 -2.301,5.8204 -1.52,1.1406 -3.559,1.7187 -6.09,1.7187 l -12.699,0 0,-14.5273 12.5,0 z"
         style="fill:#ffffff;fill-opacity:1;fill-rule:nonzero;stroke:none"
         id="path26"
         inkscape:connector-curvature="0" /><path
         d="m 501.52,84.0117 13.089,0 12.379,-20.9023 12.352,20.9023 12.961,0 -19.641,-32.6211 0,-20.3515 -11.68,0 0,20.6211 -19.46,32.3515 z"
         style="fill:#ffffff;fill-opacity:1;fill-rule:nonzero;stroke:none"
         id="path28"
         inkscape:connector-curvature="0" /><path
         d="m 592.77,224.281 c 0,-47.461 -38.43,-85.941 -85.891,-85.941 -47.469,0 -85.899,38.48 -85.899,85.941 0,47.418 38.43,85.899 85.899,85.899 47.461,0 85.891,-38.481 85.891,-85.899 z"
         style="fill:#ffffff;fill-opacity:1;fill-rule:nonzero;stroke:none"
         id="path36"
         inkscape:connector-curvature="0" /><path
         d="m 531.762,249.121 c 0,3.328 -2.703,5.981 -6.024,5.981 l -37.929,0 c -3.321,0 -6.008,-2.653 -6.008,-5.981 l 0,-37.922 10.578,0 0,-44.969 28.793,0 0,44.969 10.59,0 0,37.922 z"
         style="fill:#000000;fill-opacity:1;fill-rule:nonzero;stroke:none"
         id="path38"
         inkscape:connector-curvature="0" /><path
         d="m 519.77,273.07 c 0,-7.148 -5.821,-12.968 -12.969,-12.968 -7.192,0 -13.012,5.82 -13.012,12.968 0,7.192 5.82,13.008 13.012,13.008 7.148,0 12.969,-5.816 12.969,-13.008 z"
         style="fill:#000000;fill-opacity:1;fill-rule:nonzero;stroke:none"
         id="path40"
         inkscape:connector-curvature="0" /><path
         d="m 506.641,318.93 c -25.661,0 -47.422,-8.981 -65.231,-26.91 -18.289,-18.559 -27.39,-40.508 -27.39,-65.86 0,-25.359 9.101,-47.148 27.39,-65.39 18.281,-18.25 40.039,-27.391 65.231,-27.391 25.55,0 47.699,9.223 66.449,27.621 17.648,17.461 26.441,39.18 26.441,65.16 0,25.969 -8.941,47.93 -26.91,65.86 -17.973,17.929 -39.961,26.91 -65.98,26.91 z m 0.238,-16.719 c 21.051,0 38.941,-7.422 53.672,-22.262 14.84,-14.687 22.258,-32.621 22.258,-53.789 0,-21.332 -7.258,-39.031 -21.789,-53.09 -15.36,-15.16 -33.399,-22.73 -54.141,-22.73 -20.75,0 -38.598,7.5 -53.641,22.5 -15,14.961 -22.5,32.769 -22.5,53.32 0,20.539 7.582,38.469 22.742,53.789 14.571,14.84 32.379,22.262 53.399,22.262 z"
         style="fill:#000000;fill-opacity:1;fill-rule:evenodd;stroke:none"
         id="path42"
         inkscape:connector-curvature="0" /></g></g></svg>