<?xml version="1.0" encoding="UTF-8" standalone="no"?>
<svg
   xmlns:dc="http://purl.org/dc/elements/1.1/"
   xmlns:cc="http://creativecommons.org/ns#"
   xmlns:rdf="http://www.w3.org/1999/02/22-rdf-syntax-ns#"
   xmlns:svg="http://www.w3.org/2000/svg"
   xmlns="http://www.w3.org/2000/svg"
   xmlns:sodipodi="http://sodipodi.sourceforge.net/DTD/sodipodi-0.dtd"
   xmlns:inkscape="http://www.inkscape.org/namespaces/inkscape"
   viewBox="0 0 800 448"
   enable-background="new 0 0 800 448"
   id="svg2"
   version="1.1"
   inkscape:version="0.48.5 r10040"
   width="100%"
   height="100%"
   sodipodi:docname="forkflow-07.svg">
  <metadata
     id="metadata83">
    <rdf:RDF>
      <cc:Work
         rdf:about="">
        <dc:format>image/svg+xml</dc:format>
        <dc:type
           rdf:resource="http://purl.org/dc/dcmitype/StillImage" />
      </cc:Work>
    </rdf:RDF>
  </metadata>
  <defs
     id="defs81" />
  <sodipodi:namedview
     pagecolor="#ffffff"
     bordercolor="#666666"
     borderopacity="1"
     objecttolerance="10"
     gridtolerance="10"
     guidetolerance="10"
     inkscape:pageopacity="0"
     inkscape:pageshadow="2"
     inkscape:window-width="1366"
     inkscape:window-height="702"
     id="namedview79"
     showgrid="false"
     inkscape:zoom="0.50375"
     inkscape:cx="365.26055"
     inkscape:cy="224"
     inkscape:window-x="0"
     inkscape:window-y="27"
     inkscape:window-maximized="1"
     inkscape:current-layer="svg2" />
  <style
     type="text/css"
     id="style4">.st0{display:none;} .st1{display:inline;} .st2{fill:#FFFFFF;} .st3{fill:none;stroke:#9882CE;stroke-width:4;stroke-miterlimit:10;} .st4{fill:#FFFFFF;stroke:#404040;stroke-width:4;stroke-linecap:round;stroke-linejoin:round;stroke-miterlimit:10;} .st5{fill:#FFFFFF;stroke:#404040;stroke-width:4;stroke-miterlimit:10;} .st6{fill:#B3E3FF;stroke:#404040;stroke-width:4;stroke-miterlimit:10;} .st7{fill:#B18BE8;stroke:#404040;stroke-width:4;stroke-miterlimit:10;} .st8{fill:#FFFFFF;stroke:#404040;stroke-width:6;stroke-miterlimit:10;} .st9{fill:#B3E3FF;stroke:#404040;stroke-width:6;stroke-miterlimit:10;} .st10{fill:#404040;} .st11{fill:none;stroke:#404040;stroke-width:4;stroke-linecap:round;stroke-linejoin:round;stroke-miterlimit:10;} .st12{fill:#B18BE8;stroke:#404040;stroke-width:4;stroke-linecap:round;stroke-linejoin:round;stroke-miterlimit:10;} .st13{fill:#444444;} .st14{fill:none;stroke:#404040;stroke-width:4;stroke-miterlimit:10;} .st15{fill:#4ED1A1;stroke:#404040;stroke-width:4;stroke-miterlimit:10;} .st16{fill:none;stroke:#CCCCCC;stroke-width:7;stroke-linecap:round;stroke-linejoin:round;stroke-miterlimit:10;} .st17{fill:#FFFFFF;stroke:#CCCCCC;stroke-width:7;stroke-linecap:round;stroke-linejoin:round;stroke-miterlimit:10;} .st18{fill:none;stroke:#404040;stroke-width:7;stroke-miterlimit:10;} .st19{fill:#B3E3FF;stroke:#404040;stroke-width:7;stroke-miterlimit:10;} .st20{fill:none;stroke:#CCCCCC;stroke-width:8;stroke-linecap:round;stroke-miterlimit:10;} .st21{fill:none;stroke:#404040;stroke-width:8;stroke-linecap:round;stroke-miterlimit:10;} .st22{fill:#FFFFFF;stroke:#404040;stroke-width:4;stroke-linejoin:round;stroke-miterlimit:10;} .st23{fill:#B3E3FF;stroke:#404040;stroke-width:4;stroke-linejoin:round;stroke-miterlimit:10;} .st24{fill:none;stroke:#CCCCCC;stroke-linecap:round;stroke-linejoin:round;stroke-miterlimit:10;} .st25{fill:#999999;} .st26{fill:#4ED1A1;stroke:#404040;stroke-width:4;stroke-linecap:round;stroke-linejoin:round;stroke-miterlimit:10;} .st27{fill:#4CD3D6;stroke:#404040;stroke-width:4;stroke-linejoin:round;stroke-miterlimit:10;} .st28{fill:none;stroke:#59AFE1;stroke-width:4;stroke-miterlimit:10;} .st29{fill:#59AFE1;stroke:#404040;stroke-width:4;stroke-linejoin:round;stroke-miterlimit:10;} .st30{fill:none;stroke:#404040;stroke-width:8;stroke-linecap:round;stroke-linejoin:round;stroke-miterlimit:10;stroke-dasharray:0,30;} .st31{fill:#FFFFFF;stroke:#59AFE1;stroke-width:4;stroke-miterlimit:10;} .st32{fill:#FC8363;stroke:#404040;stroke-width:4;stroke-linecap:round;stroke-linejoin:round;stroke-miterlimit:10;} .st33{fill:#CCCCCC;stroke:#404040;stroke-width:4;stroke-miterlimit:10;} .st34{fill:#FFFFFF;stroke:#6693ED;stroke-width:4;stroke-miterlimit:10;} .st35{fill:none;stroke:#A97CDD;stroke-width:4;stroke-linecap:round;stroke-linejoin:round;stroke-miterlimit:10;} .st36{fill:none;stroke:#B3E3FF;stroke-width:4;stroke-linecap:round;stroke-linejoin:round;stroke-miterlimit:10;} .st37{fill:none;stroke:#4ED1A1;stroke-width:4;stroke-linecap:round;stroke-miterlimit:10;} .st38{fill:none;stroke:#4ED1A1;stroke-width:4;stroke-linecap:round;stroke-linejoin:round;stroke-miterlimit:10;} .st39{fill:#E24B88;stroke:#404040;stroke-width:4;stroke-linecap:round;stroke-linejoin:round;stroke-miterlimit:10;} .st40{fill:none;stroke:#DEEFF8;stroke-width:4;stroke-miterlimit:10;} .st41{fill:none;stroke:#CCCCCC;stroke-width:4;stroke-linecap:round;stroke-linejoin:round;} .st42{fill:none;stroke:#CCCCCC;stroke-width:4;stroke-linecap:round;stroke-linejoin:round;stroke-dasharray:0,14.3051;} .st43{fill:none;stroke:#CCCCCC;stroke-width:4;stroke-linecap:round;stroke-linejoin:round;stroke-dasharray:0,14.1689;} .st44{fill:none;stroke:#CCCCCC;stroke-width:4;stroke-linecap:round;stroke-linejoin:round;stroke-dasharray:0,13.9788;} .st45{fill:none;stroke:#CCCCCC;stroke-width:4;stroke-linecap:round;stroke-linejoin:round;stroke-dasharray:0,14.7877;} .st46{fill:none;stroke:#CCCCCC;stroke-width:4;stroke-linecap:round;stroke-linejoin:round;stroke-dasharray:0,14.9632;} .st47{fill:#B3E3FF;stroke:#404040;stroke-width:4;stroke-linecap:round;stroke-linejoin:round;stroke-miterlimit:10;} .st48{fill:none;stroke:#CCCCCC;stroke-width:4;stroke-linecap:round;stroke-linejoin:round;stroke-dasharray:0,12.543;} .st49{fill:none;stroke:#CCCCCC;stroke-width:4;stroke-linecap:round;stroke-linejoin:round;stroke-dasharray:0,13.6844;} .st50{fill:none;stroke:#CCCCCC;stroke-width:4;stroke-linecap:round;stroke-linejoin:round;stroke-dasharray:0,13.7717;} .st51{fill:none;stroke:#CCCCCC;stroke-width:4;stroke-linecap:round;stroke-linejoin:round;stroke-dasharray:0,13.6492;} .st52{fill:none;stroke:#CCCCCC;stroke-width:4;stroke-linecap:round;stroke-linejoin:round;stroke-dasharray:0,13.907;} .st53{fill:#4CD3D6;stroke:#404040;stroke-width:4;stroke-linecap:round;stroke-linejoin:round;stroke-miterlimit:10;} .st54{fill:none;stroke:#CCCCCC;stroke-width:4;stroke-linecap:round;stroke-linejoin:round;stroke-dasharray:0,14.9858;} .st55{fill:none;stroke:#CCCCCC;stroke-width:4;stroke-linecap:round;stroke-linejoin:round;stroke-dasharray:0,14.0118;} .st56{fill:none;stroke:#CCCCCC;stroke-width:4;stroke-linecap:round;stroke-linejoin:round;stroke-dasharray:0,14.1243;} .st57{fill:none;} .st58{fill:#FFFFFF;stroke:#404040;stroke-width:7;stroke-linecap:round;stroke-linejoin:round;stroke-miterlimit:10;} .st59{fill:#59AFE1;stroke:#404040;stroke-width:7;stroke-linejoin:round;stroke-miterlimit:10;} .st60{fill:#E24B88;stroke:#404040;stroke-width:7;stroke-linecap:round;stroke-linejoin:round;stroke-miterlimit:10;} .st61{fill:none;stroke:#404040;stroke-width:7;stroke-linecap:round;stroke-linejoin:round;stroke-miterlimit:10;} .st62{fill:none;stroke:#CCCCCC;stroke-width:4;stroke-linecap:round;stroke-linejoin:round;stroke-miterlimit:10;} .st63{fill:#FFFFFF;stroke:#CCCCCC;stroke-width:4;stroke-linecap:round;stroke-linejoin:round;stroke-miterlimit:10;} .st64{fill:#F5F5F5;} .st65{fill:#3873AE;} .st66{fill:#75706C;} .st67{fill:none;stroke:#B3E3FF;stroke-width:4;stroke-miterlimit:10;} .st68{fill:#6F6F6F;} .st69{fill:none;stroke:#6F6F6F;stroke-width:2;stroke-miterlimit:10;} .st70{fill:none;stroke:#6F6F6F;stroke-width:3;stroke-miterlimit:10;}</style>
  <g
     id="g3213">
    <path
       id="repo1_268_"
       class="st7"
       d="m 125.2,121.1 c 0,-12.4 28.2,-22.4 63,-22.4 34.8,0 63,10 63,22.4 m -126,0 V 149 c 0,3 1.7,5.9 4.7,8.5 9.4,8.2 32,13.9 58.3,13.9 26.4,0 48.9,-5.8 58.3,-13.9 3,-2.6 4.7,-5.5 4.7,-8.5 v -27.9"
       inkscape:connector-curvature="0"
       style="fill:#b18be8;stroke:#404040;stroke-width:4;stroke-miterlimit:10" />
    <path
       class="st34"
       d="m 251.2,121.1 c 0,12.4 -28.2,22.4 -63,22.4 -34.8,0 -63,-10 -63,-22.4 0,-12.4 28.2,-22.4 63,-22.4 34.8,0 63,10 63,22.4 z"
       id="path8"
       inkscape:connector-curvature="0"
       style="fill:#ffffff;stroke:#6693ed;stroke-width:4;stroke-miterlimit:10" />
    <path
       id="repo1_267_"
       class="st7"
       d="m 125.2,93.2 c 0,-12.4 28.2,-22.4 63,-22.4 34.8,0 63,10 63,22.4 m -126,0 v 27.9 c 0,3 1.7,5.9 4.7,8.5 9.4,8.2 32,13.9 58.3,13.9 26.4,0 48.9,-5.8 58.3,-13.9 3,-2.6 4.7,-5.5 4.7,-8.5 V 93.2"
       inkscape:connector-curvature="0"
       style="fill:#b18be8;stroke:#404040;stroke-width:4;stroke-miterlimit:10" />
    <path
       class="st34"
       d="m 251.2,93.2 c 0,12.4 -28.2,22.4 -63,22.4 -34.8,0 -63,-10 -63,-22.4 0,-12.4 28.2,-22.4 63,-22.4 34.8,0 63,10 63,22.4 z"
       id="path11"
       inkscape:connector-curvature="0"
       style="fill:#ffffff;stroke:#6693ed;stroke-width:4;stroke-miterlimit:10" />
    <path
       id="repo1_266_"
       class="st7"
       d="m 125.2,65.3 c 0,-12.4 28.2,-22.4 63,-22.4 34.8,0 63,10 63,22.4 m -126,0 v 27.9 c 0,3 1.7,5.9 4.7,8.5 9.4,8.2 32,13.9 58.3,13.9 26.4,0 48.9,-5.8 58.3,-13.9 3,-2.6 4.7,-5.5 4.7,-8.5 V 65.3"
       inkscape:connector-curvature="0"
       style="fill:#b18be8;stroke:#404040;stroke-width:4;stroke-miterlimit:10" />
    <path
       class="st34"
       d="m 251.2,65.3 c 0,12.4 -28.2,22.4 -63,22.4 -34.8,0 -63,-10 -63,-22.4 0,-12.4 28.2,-22.4 63,-22.4 34.8,0 63,10 63,22.4 z"
       id="path14"
       inkscape:connector-curvature="0"
       style="fill:#ffffff;stroke:#6693ed;stroke-width:4;stroke-miterlimit:10" />
    <path
       id="repo1_265_"
       class="st7"
       d="m 125.2,37.4 c 0,-12.4 28.2,-22.4 63,-22.4 34.8,0 63,10 63,22.4 m -126,0 v 27.9 c 0,3 1.7,5.9 4.7,8.5 9.4,8.2 32,13.9 58.3,13.9 26.4,0 48.9,-5.8 58.3,-13.9 3,-2.6 4.7,-5.5 4.7,-8.5 V 37.4"
       inkscape:connector-curvature="0"
       style="fill:#b18be8;stroke:#404040;stroke-width:4;stroke-miterlimit:10" />
    <path
       class="st5"
       d="m 251.2,37.4 c 0,12.4 -28.2,22.4 -63,22.4 -34.8,0 -63,-10 -63,-22.4 0,-12.4 28.2,-22.4 63,-22.4 34.8,0 63,10 63,22.4 z"
       id="path17"
       inkscape:connector-curvature="0"
       style="fill:#ffffff;stroke:#404040;stroke-width:4;stroke-miterlimit:10" />
  </g>
  <g
     id="g3223">
    <path
       id="repo1_260_"
       class="st15"
       d="m 548.8,121.1 c 0,-12.4 28.2,-22.4 63,-22.4 34.8,0 63,10 63,22.4 m -126,0 V 149 c 0,3 1.7,5.9 4.7,8.5 9.4,8.2 32,13.9 58.3,13.9 26.4,0 48.9,-5.8 58.3,-13.9 3,-2.6 4.7,-5.5 4.7,-8.5 v -27.9"
       inkscape:connector-curvature="0"
       style="fill:#4ed1a1;stroke:#404040;stroke-width:4;stroke-miterlimit:10" />
    <path
       class="st34"
       d="m 674.8,121.1 c 0,12.4 -28.2,22.4 -63,22.4 -34.8,0 -63,-10 -63,-22.4 0,-12.4 28.2,-22.4 63,-22.4 34.8,0 63,10 63,22.4 z"
       id="path32"
       inkscape:connector-curvature="0"
       style="fill:#ffffff;stroke:#6693ed;stroke-width:4;stroke-miterlimit:10" />
    <path
       id="repo1_259_"
       class="st15"
       d="m 548.8,93.2 c 0,-12.4 28.2,-22.4 63,-22.4 34.8,0 63,10 63,22.4 m -126,0 v 27.9 c 0,3 1.7,5.9 4.7,8.5 9.4,8.2 32,13.9 58.3,13.9 26.4,0 48.9,-5.8 58.3,-13.9 3,-2.6 4.7,-5.5 4.7,-8.5 V 93.2"
       inkscape:connector-curvature="0"
       style="fill:#4ed1a1;stroke:#404040;stroke-width:4;stroke-miterlimit:10" />
    <path
       class="st34"
       d="m 674.8,93.2 c 0,12.4 -28.2,22.4 -63,22.4 -34.8,0 -63,-10 -63,-22.4 0,-12.4 28.2,-22.4 63,-22.4 34.8,0 63,10 63,22.4 z"
       id="path35"
       inkscape:connector-curvature="0"
       style="fill:#ffffff;stroke:#6693ed;stroke-width:4;stroke-miterlimit:10" />
    <path
       id="repo1_258_"
       class="st15"
       d="m 548.8,65.3 c 0,-12.4 28.2,-22.4 63,-22.4 34.8,0 63,10 63,22.4 m -126,0 v 27.9 c 0,3 1.7,5.9 4.7,8.5 9.4,8.2 32,13.9 58.3,13.9 26.4,0 48.9,-5.8 58.3,-13.9 3,-2.6 4.7,-5.5 4.7,-8.5 V 65.3"
       inkscape:connector-curvature="0"
       style="fill:#4ed1a1;stroke:#404040;stroke-width:4;stroke-miterlimit:10" />
    <path
       class="st34"
       d="m 674.8,65.3 c 0,12.4 -28.2,22.4 -63,22.4 -34.8,0 -63,-10 -63,-22.4 0,-12.4 28.2,-22.4 63,-22.4 34.8,0 63,10 63,22.4 z"
       id="path38"
       inkscape:connector-curvature="0"
       style="fill:#ffffff;stroke:#6693ed;stroke-width:4;stroke-miterlimit:10" />
    <path
       id="repo1_257_"
       class="st15"
       d="M 548.8,37.4 C 548.8,25 577,15 611.8,15 c 34.8,0 63,10 63,22.4 m -126,0 v 27.9 c 0,3 1.7,5.9 4.7,8.5 9.4,8.2 32,13.9 58.3,13.9 26.4,0 48.9,-5.8 58.3,-13.9 3,-2.6 4.7,-5.5 4.7,-8.5 V 37.4"
       inkscape:connector-curvature="0"
       style="fill:#4ed1a1;stroke:#404040;stroke-width:4;stroke-miterlimit:10" />
    <path
       class="st5"
       d="m 674.8,37.4 c 0,12.4 -28.2,22.4 -63,22.4 -34.8,0 -63,-10 -63,-22.4 0,-12.4 28.2,-22.4 63,-22.4 34.8,0 63,10 63,22.4 z"
       id="path41"
       inkscape:connector-curvature="0"
       style="fill:#ffffff;stroke:#404040;stroke-width:4;stroke-miterlimit:10" />
  </g>
  <path
     style="fill:none;stroke:#404040;stroke-width:4;stroke-linecap:round;stroke-linejoin:round;stroke-miterlimit:10"
     inkscape:connector-curvature="0"
     id="path43"
     d="m 594.8,396 c 3.1,6.8 9.9,11.2 17.3,11.2 7.5,0 14.3,-4.4 17.4,-11.3"
     class="st11" />
  <path
     style="fill:#ffffff;stroke:#404040;stroke-width:4;stroke-miterlimit:10"
     inkscape:connector-curvature="0"
     id="path45"
     d="m 611.7,440.3 c 0,0 27.4,0.8 37.7,-5.2 17,-9.9 -0.3,-30.2 -13.7,-33.6 -4.1,7.7 -13.3,13 -24,13 h 0.3 c -10.7,0 -19.8,-5.4 -24,-13 -13.4,3.4 -30.7,23.8 -13.7,33.6 10.3,6 37.7,5.2 37.7,5.2"
     class="st5" />
  <circle
     style="fill:#ffffff;stroke:#404040;stroke-width:4;stroke-miterlimit:10"
     sodipodi:ry="23"
     sodipodi:rx="23"
     sodipodi:cy="370.60001"
     sodipodi:cx="612.09998"
     id="circle47"
     r="23"
     cy="370.60001"
     cx="612.09998"
     class="st5" />
  <path
     style="fill:#ffffff;stroke:#404040;stroke-width:4;stroke-miterlimit:10"
     inkscape:connector-curvature="0"
     id="path49"
     d="m 596.5,353.6 c 2.6,20 34.1,7.2 38,21.8 -2.2,10.4 -11.4,18.2 -22.5,18.2 -12.7,0 -23,-10.3 -23,-23 0,-1.3 0.1,-2.6 0.3,-3.9 1.2,0.1 8.1,3.9 7.2,-13.1 z"
     class="st5" />
  <path
     style="fill:none;stroke:#404040;stroke-width:4;stroke-linecap:round;stroke-linejoin:round;stroke-miterlimit:10"
     inkscape:connector-curvature="0"
     id="path51"
     d="m 624.6,390.8 v 10.6 m -24.6,0.1 v -10.3 m -214.9,3.1 c 3.1,6.8 9.9,11.2 17.3,11.2 7.5,0 14.3,-4.4 17.4,-11.3"
     class="st11" />
  <g
     id="g3240">
    <path
       class="st6"
       d="m 402,438.6 c 0,0 27.4,0.8 37.7,-5.2 17,-9.9 -0.3,-30.2 -13.7,-33.6 -4.1,7.7 -13.3,13 -24,13 h 0.3 c -10.7,0 -19.8,-5.4 -24,-13 -13.4,3.4 -30.7,23.8 -13.7,33.6 10.3,6 37.7,5.2 37.7,5.2"
       id="path53"
       inkscape:connector-curvature="0"
       style="fill:#b3e3ff;stroke:#404040;stroke-width:4;stroke-miterlimit:10" />
    <circle
       class="st6"
       cx="402.5"
       cy="368.89999"
       r="23"
       id="circle55"
       sodipodi:cx="402.5"
       sodipodi:cy="368.89999"
       sodipodi:rx="23"
       sodipodi:ry="23"
       style="fill:#b3e3ff;stroke:#404040;stroke-width:4;stroke-miterlimit:10" />
    <path
       class="st5"
       d="m 413.1,356.7 c 2.6,20 7.9,2.4 11.8,17 -2.2,10.4 -11.4,18.2 -22.5,18.2 -12.7,0 -23,-10.3 -23,-23 0,-1.3 0.1,-2.6 0.3,-3.9 1.1,0.1 26.3,11.1 33.4,-8.3 z"
       id="path57"
       inkscape:connector-curvature="0"
       style="fill:#ffffff;stroke:#404040;stroke-width:4;stroke-miterlimit:10" />
    <path
       class="st11"
       d="m 415,389.1 v 10.6 m -24.6,0.1 v -10.3"
       id="path59"
       inkscape:connector-curvature="0"
       style="fill:none;stroke:#404040;stroke-width:4;stroke-linecap:round;stroke-linejoin:round;stroke-miterlimit:10" />
  </g>
  <path
     style="fill:#ffffff;stroke:#404040;stroke-width:4;stroke-linecap:round;stroke-linejoin:round;stroke-miterlimit:10"
     inkscape:connector-curvature="0"
     id="path61"
     d="m 170.6,394.3 c 3.1,6.8 9.9,11.2 17.3,11.2 7.5,0 14.3,-4.4 17.4,-11.3"
     class="st4" />
  <path
     style="fill:#ffffff;stroke:#404040;stroke-width:4;stroke-miterlimit:10"
     inkscape:connector-curvature="0"
     id="path63"
     d="m 188,438.6 c 0,0 27.4,0.8 37.7,-5.2 17,-9.9 -0.3,-30.2 -13.7,-33.6 -4.1,7.7 -13.3,13 -24,13 h 0.3 c -10.7,0 -19.8,-5.4 -24,-13 -13.4,3.4 -30.7,23.8 -13.7,33.6 10.3,6 37.7,5.2 37.7,5.2"
     class="st5" />
  <circle
     style="fill:#ffffff;stroke:#404040;stroke-width:4;stroke-miterlimit:10"
     sodipodi:ry="23"
     sodipodi:rx="23"
     sodipodi:cy="368.89999"
     sodipodi:cx="187.89999"
     id="circle65"
     r="23"
     cy="368.89999"
     cx="187.89999"
     class="st5" />
  <path
     style="fill:#ffffff;stroke:#404040;stroke-width:4;stroke-linecap:round;stroke-linejoin:round;stroke-miterlimit:10"
     inkscape:connector-curvature="0"
     id="path67"
     d="m 198,348.2 c -6.7,17.2 -19.4,0.5 -32.6,25.5 2.2,10.4 11.4,18.2 22.5,18.2 12.7,0 23,-10.3 23,-23 0,-1.4 -11.1,-6 -12.9,-20.7 z m 2.5,39.9 v 11.6 m -24.6,0.1 v -11.3"
     class="st4" />
  <path
     style="fill:#ffffff;stroke:#404040;stroke-width:4;stroke-miterlimit:10"
     inkscape:connector-curvature="0"
     id="path69"
     d="m 164.9,369.4 c 0,0 0,10.6 4.6,14.5 -3.6,1.7 -11.6,-0.9 -10.5,-1.7 4.5,-3.2 5.9,-12.8 5.9,-12.8 z m 46,-0.5 c 0,0 -0.2,11.1 -4.8,15 3.6,1.7 11.6,-0.9 10.5,-1.7 -4.5,-3.2 -5.7,-13.3 -5.7,-13.3 z"
     class="st5" />
  <g
     id="g3233">
    <path
       class="st35"
       d="m 251.2,211.9 82.2,82.3 m 1.4,-14 v 15.3 h -15.4"
       id="path71"
       inkscape:connector-curvature="0"
       style="fill:none;stroke:#a97cdd;stroke-width:4;stroke-linecap:round;stroke-linejoin:round;stroke-miterlimit:10" />
  </g>
  <g
     id="g3236">
    <path
       class="st37"
       d="m 548.8,211.9 -82.2,82.3"
       id="path75"
       inkscape:connector-curvature="0"
       style="fill:none;stroke:#4ed1a1;stroke-width:4;stroke-linecap:round;stroke-miterlimit:10" />
    <path
       class="st38"
       d="m 465.2,280.2 v 15.3 h 15.4"
       id="path77"
       inkscape:connector-curvature="0"
       style="fill:none;stroke:#4ed1a1;stroke-width:4;stroke-linecap:round;stroke-linejoin:round;stroke-miterlimit:10" />
  </g>
  <g
     id="g3123"
     transform="translate(-711.4976,-84.824811)">
    <path
       id="repo1_252_"
       class="st5"
       d="m 1050.6476,205.92481 c 0,-12.4 28.2,-22.4 63,-22.4 34.8,0 63,10 63,22.4 m -126,0 v 27.9 c 0,3 1.7,5.9 4.7,8.5 9.4,8.2 32,13.9 58.3,13.9 26.4,0 48.9,-5.8 58.3,-13.9 3,-2.6 4.7,-5.5 4.7,-8.5 v -27.9"
       inkscape:connector-curvature="0"
       style="fill:#ffffff;stroke:#404040;stroke-width:4;stroke-miterlimit:10" />
    <path
       class="st34"
       d="m 1176.6476,205.92481 c 0,12.4 -28.2,22.4 -63,22.4 -34.8,0 -63,-10 -63,-22.4 0,-12.4 28.2,-22.4 63,-22.4 34.8,0 63,10 63,22.4 z"
       id="path20-6"
       inkscape:connector-curvature="0"
       style="fill:#ffffff;stroke:#6693ed;stroke-width:4;stroke-miterlimit:10" />
    <path
       id="repo1_251_"
       class="st5"
       d="m 1050.6476,178.02481 c 0,-12.4 28.2,-22.4 63,-22.4 34.8,0 63,10 63,22.4 m -126,0 v 27.9 c 0,3 1.7,5.9 4.7,8.5 9.4,8.2 32,13.9 58.3,13.9 26.4,0 48.9,-5.8 58.3,-13.9 3,-2.6 4.7,-5.5 4.7,-8.5 v -27.9"
       inkscape:connector-curvature="0"
       style="fill:#ffffff;stroke:#404040;stroke-width:4;stroke-miterlimit:10" />
    <path
       class="st34"
       d="m 1176.6476,178.02481 c 0,12.4 -28.2,22.4 -63,22.4 -34.8,0 -63,-10 -63,-22.4 0,-12.4 28.2,-22.4 63,-22.4 34.8,0 63,10 63,22.4 z"
       id="path23-8"
       inkscape:connector-curvature="0"
       style="fill:#ffffff;stroke:#6693ed;stroke-width:4;stroke-miterlimit:10" />
    <path
       id="repo1_250_"
       class="st5"
       d="m 1050.6476,150.12481 c 0,-12.4 28.2,-22.4 63,-22.4 34.8,0 63,10 63,22.4 m -126,0 v 27.9 c 0,3 1.7,5.9 4.7,8.5 9.4,8.2 32,13.9 58.3,13.9 26.4,0 48.9,-5.8 58.3,-13.9 3,-2.6 4.7,-5.5 4.7,-8.5 v -27.9"
       inkscape:connector-curvature="0"
       style="fill:#ffffff;stroke:#404040;stroke-width:4;stroke-miterlimit:10" />
    <path
       class="st34"
       d="m 1176.6476,150.12481 c 0,12.4 -28.2,22.4 -63,22.4 -34.8,0 -63,-10 -63,-22.4 0,-12.4 28.2,-22.4 63,-22.4 34.8,0 63,10 63,22.4 z"
       id="path26-8"
       inkscape:connector-curvature="0"
       style="fill:#ffffff;stroke:#6693ed;stroke-width:4;stroke-miterlimit:10" />
    <path
       id="repo1_249_"
       class="st5"
       d="m 1050.6476,122.22481 c 0,-12.4 28.2,-22.399998 63,-22.399998 34.8,0 63,9.999998 63,22.399998 m -126,0 v 27.9 c 0,3 1.7,5.9 4.7,8.5 9.4,8.2 32,13.9 58.3,13.9 26.4,0 48.9,-5.8 58.3,-13.9 3,-2.6 4.7,-5.5 4.7,-8.5 v -27.9"
       inkscape:connector-curvature="0"
       style="fill:#ffffff;stroke:#404040;stroke-width:4;stroke-miterlimit:10" />
    <path
       class="st5"
       d="m 1176.6476,122.22481 c 0,12.4 -28.2,22.4 -63,22.4 -34.8,0 -63,-10 -63,-22.4 0,-12.4 28.2,-22.399998 63,-22.399998 34.8,0 63,9.999998 63,22.399998 z"
       id="path29-2"
       inkscape:connector-curvature="0"
       style="fill:#ffffff;stroke:#404040;stroke-width:4;stroke-miterlimit:10" />
  </g>
</svg>
